<svg width="238" height="42" viewBox="0 0 238 42" fill="none" xmlns="http://www.w3.org/2000/svg">
<g opacity="0.5">
<path fill-rule="evenodd" clip-rule="evenodd" d="M91.5806 27.3859C91.7669 27.8192 91.9531 28.3145 92.1394 28.8097C92.6982 30.2335 92.8224 31.5954 92.6361 32.9573C92.2015 35.8049 90.3388 38.2811 87.6069 39.3954C86.6134 39.8287 85.5579 40.0145 84.4403 40.0145C84.1299 40.0145 83.7573 40.0145 83.4469 39.9525C82.143 39.8287 80.8391 39.3954 79.5352 38.6525C77.983 37.7859 76.4307 36.4859 74.6922 34.6287C72.9537 36.4859 71.4636 37.7859 69.8493 38.6525C68.5454 39.3954 67.2415 39.7668 65.9376 39.9525C65.7824 39.9525 65.6116 39.968 65.4409 39.9835C65.2702 39.999 65.0994 40.0145 64.9442 40.0145C63.8266 40.0145 62.771 39.8287 61.7776 39.3954C59.1078 38.2811 57.1209 35.8668 56.6863 32.9573C56.5 31.5335 56.6863 30.1716 57.183 28.8097C57.3693 28.2525 57.5555 27.8192 57.7418 27.3859C58.0522 26.7049 58.3627 26.024 58.611 25.4049L58.6731 25.343C61.4051 19.524 64.2612 13.643 67.2415 7.82397L67.3657 7.57636C67.6761 7.01921 67.9866 6.40017 68.297 5.78112C68.3806 5.65011 68.4643 5.51681 68.5488 5.3821C68.9035 4.81662 69.2738 4.2263 69.7251 3.67636C71.029 2.19064 72.7675 1.32397 74.6922 1.32397C76.5549 1.32397 78.3555 2.19064 79.5973 3.73826C80.2182 4.41921 80.6528 5.16207 81.0254 5.84302C81.3358 6.46207 81.6463 7.08112 81.9567 7.63826L82.0809 7.88588C85.1233 13.7049 87.9794 19.5859 90.6493 25.4049H90.7113C90.9597 26.024 91.2701 26.7049 91.5806 27.3859ZM122.129 11.043C122.129 12.4668 121.011 13.5811 119.583 13.5811C118.155 13.5811 117.037 12.4668 117.037 11.043C117.037 9.61921 118.155 8.50493 119.583 8.50493C121.073 8.56683 122.129 9.68112 122.129 11.043ZM111.76 16.1192V16.7383C111.76 16.7383 110.58 15.1906 107.972 15.1906C103.75 15.1906 100.459 18.4097 100.459 22.8668C100.459 27.2621 103.75 30.543 107.972 30.543C110.58 30.543 111.76 28.9335 111.76 28.9335V29.6144C111.76 29.924 112.008 30.1716 112.319 30.1716H115.485V15.5621H112.319C111.946 15.5621 111.76 15.8097 111.76 16.1192ZM108.593 27.0145C110.021 27.0145 111.201 26.2716 111.76 25.4049V20.2049C111.201 19.4002 109.959 18.5954 108.593 18.5954C106.11 18.5954 104.185 20.143 104.185 22.8049C104.185 25.4668 106.11 27.0145 108.593 27.0145ZM121.446 15.5621V30.1097H117.72V15.5621H121.446ZM169.627 16.7383C169.627 16.7383 170.869 15.1906 173.415 15.1906C177.637 15.1906 180.927 18.4097 180.927 22.8049C180.927 27.2002 177.637 30.4811 173.415 30.4811C170.807 30.4811 169.627 28.8716 169.627 28.8716V29.5525C169.627 29.8621 169.379 30.1097 169.068 30.1097H165.902V8.56683H169.627V16.7383ZM172.794 26.9525C171.366 26.9525 170.248 26.2097 169.627 25.343V20.143C170.186 19.3383 171.428 18.5335 172.794 18.5335C175.277 18.5335 177.202 20.0811 177.202 22.743C177.202 25.4049 175.277 26.9525 172.794 26.9525ZM163.977 30.1716V21.5049C163.977 19.0287 163.48 17.6668 162.239 16.6145C161.121 15.6859 159.755 15.1906 158.141 15.1906C156.713 15.1906 155.284 15.624 154.167 16.7383V16.1192C154.167 15.8097 153.919 15.5621 153.608 15.5621H150.628V30.1716H154.353V20.0192C155.098 19.1525 156.278 18.5954 157.396 18.5954C159.444 18.5954 160.252 19.524 160.252 21.9383V30.1716H163.977ZM141.563 15.1906C139.017 15.1906 137.775 16.7383 137.775 16.7383V8.56683H134.05V30.1097H137.216C137.527 30.1097 137.775 29.8621 137.775 29.5525V28.8716C137.775 28.8716 138.955 30.4811 141.563 30.4811C145.785 30.4811 149.076 27.2002 149.076 22.8049C149.138 18.4097 145.847 15.1906 141.563 15.1906ZM137.775 25.343C138.396 26.2097 139.514 26.9525 140.942 26.9525C143.425 26.9525 145.35 25.4049 145.35 22.743C145.35 20.0811 143.425 18.5335 140.942 18.5335C139.576 18.5335 138.334 19.3383 137.775 20.143V25.343ZM130.883 15.1906C132.001 15.1906 132.622 15.3764 132.622 15.3764V18.843C132.622 18.843 129.517 17.7906 127.593 20.0192V30.1716H123.867V15.5621H127.034C127.344 15.5621 127.593 15.8097 127.593 16.1192V16.7383C128.213 15.9335 129.704 15.1906 130.883 15.1906ZM74.6301 30.7906C72.5191 28.1287 71.1531 25.6525 70.7185 23.6097C70.5322 22.743 70.4701 21.9383 70.5943 21.2573C70.6564 20.6383 70.9048 20.0811 71.2152 19.6478C71.9603 18.5954 73.2021 17.9144 74.6301 17.9144C76.0582 17.9144 77.3621 18.5335 78.0451 19.6478C78.3555 20.143 78.6039 20.6383 78.666 21.2573C78.7901 21.9383 78.7281 22.743 78.5418 23.6097C78.1072 25.6525 76.7412 28.1287 74.6301 30.7906ZM86.6134 37.1668C88.5382 36.424 89.9042 34.6906 90.1525 32.6478C90.2767 31.5954 90.1525 30.6668 89.9663 29.6764C89.899 29.4753 89.8136 29.2742 89.7198 29.0535C89.6404 28.8665 89.555 28.6654 89.4696 28.4383C89.3143 28.1287 89.1746 27.8037 89.0349 27.4787C88.8952 27.1537 88.7555 26.8287 88.6003 26.5192V26.4573C85.9304 20.7002 83.0743 14.8192 80.094 9.06207L79.9699 8.81445L79.9698 8.81444C79.6594 8.19539 79.349 7.57635 79.0385 7.01921C78.7281 6.40017 78.3555 5.78112 77.9209 5.28588C77.1137 4.35731 75.9961 3.86207 74.8164 3.86207C73.6367 3.86207 72.5191 4.35731 71.7119 5.28588C71.2773 5.84302 70.9048 6.40017 70.5943 7.01921L70.5943 7.01923C70.2839 7.63827 69.9734 8.25731 69.663 8.81445L69.5388 9.06207C66.4964 14.8192 63.6403 20.7002 60.9704 26.4573L60.9084 26.5192C60.5979 27.1383 60.2875 27.8192 60.0391 28.4383C59.8528 28.8716 59.6666 29.3049 59.5424 29.6764C59.1078 30.7906 59.0457 31.7192 59.1699 32.7097C59.4182 34.6906 60.7842 36.424 62.709 37.2287C63.5782 37.5383 64.5716 37.724 65.6272 37.6002C66.6206 37.4764 67.614 37.1668 68.6075 36.6097C69.9734 35.8049 71.4015 34.6287 73.0158 32.8335C70.4701 29.6764 68.8558 26.7668 68.297 24.2287C67.9866 23.0525 67.9245 21.9383 68.1107 20.9478C68.297 19.9573 68.6075 19.0906 69.1663 18.2859C70.346 16.6145 72.3949 15.5621 74.6301 15.5621C76.8654 15.5621 78.9143 16.5525 80.094 18.2859C80.6528 19.0906 80.9633 19.9573 81.1496 20.9478C81.2737 21.9383 81.2116 23.0525 80.9633 24.2287C80.3424 26.7668 78.7901 29.6145 76.2445 32.7716C77.8588 34.5668 79.2248 35.743 80.6528 36.5478C81.7084 37.1049 82.6397 37.4145 83.6331 37.5383C84.6887 37.6621 85.6821 37.5383 86.6134 37.1668Z" fill="#979797"/>
</g>
</svg>
