<svg width="238" height="42" viewBox="0 0 238 42" fill="none" xmlns="http://www.w3.org/2000/svg">
<g opacity="0.5">
<path fill-rule="evenodd" clip-rule="evenodd" d="M74.7208 7.5917C74.7208 8.87944 73.5976 9.98321 72.2872 9.98321C70.9768 9.98321 69.8536 8.87944 69.8536 7.5917C69.8536 6.30397 70.9768 5.2002 72.2872 5.2002C73.5976 5.2002 74.7208 6.30397 74.7208 7.5917ZM72.2872 11.9455C70.852 11.9455 69.7288 13.0493 69.7288 14.4596C69.7288 15.87 70.852 16.9738 72.2872 16.9738C73.7224 16.9738 74.8456 15.87 74.8456 14.4596C74.8456 12.9879 73.7224 11.9455 72.2872 11.9455ZM69.6664 21.2049C69.6664 19.7945 70.852 18.6294 72.2872 18.6294C73.7224 18.6294 74.9704 19.7945 74.908 21.2049C74.908 22.6153 73.7224 23.7804 72.2872 23.7804C70.852 23.7804 69.6664 22.6153 69.6664 21.2049ZM72.2872 25.436C70.852 25.436 69.7288 26.5398 69.7288 27.9502C69.7288 29.3606 70.852 30.4643 72.2872 30.4643C73.7224 30.4643 74.8456 29.3606 74.8456 27.9502C74.8456 26.6011 73.7224 25.436 72.2872 25.436ZM69.8536 34.7568C69.8536 33.4691 70.9768 32.3653 72.2872 32.3653C73.66 32.3653 74.7208 33.4691 74.7208 34.7568C74.7208 36.0445 73.5976 37.1483 72.2872 37.1483C70.9768 37.1483 69.8536 36.0445 69.8536 34.7568ZM79.0264 11.6389C77.4664 11.6389 76.156 12.9266 76.156 14.4596C76.156 15.9926 77.4664 17.2804 79.0264 17.2804C80.5864 17.2804 81.8968 15.9926 81.8968 14.4596C81.8968 12.9266 80.5864 11.6389 79.0264 11.6389ZM76.0312 21.2662C76.0312 19.6106 77.404 18.3228 79.0264 18.3228C80.6488 18.3228 82.0216 19.6106 82.0216 21.2662C82.0216 22.9219 80.6488 24.2096 79.0264 24.2096C77.3416 24.2096 76.0312 22.8606 76.0312 21.2662ZM79.0264 25.1294C77.4664 25.1294 76.156 26.4172 76.156 27.9502C76.156 29.4832 77.4664 30.771 79.0264 30.771C80.5864 30.771 81.8968 29.4832 81.8968 27.9502C81.8968 26.4172 80.5864 25.1294 79.0264 25.1294ZM82.6456 21.2049C82.6456 19.3653 84.2056 17.9549 85.9528 17.9549C87.7 17.9549 89.1352 19.3653 89.26 21.2049C89.26 23.0445 87.8248 24.4549 85.9528 24.4549C84.0808 24.4549 82.6456 22.9219 82.6456 21.2049ZM65.4856 12.2521C64.3 12.2521 63.3016 13.2332 63.3016 14.3983C63.3016 15.5634 64.3 16.5445 65.4856 16.5445C66.6712 16.5445 67.6696 15.5634 67.6696 14.3983C67.6696 13.2332 66.7336 12.2521 65.4856 12.2521ZM63.1768 21.2049C63.1768 19.9172 64.1752 18.936 65.4856 18.936C66.796 18.936 67.7944 19.9172 67.7944 21.2049C67.7944 22.4926 66.796 23.4738 65.4856 23.4738C64.1752 23.4738 63.1768 22.4926 63.1768 21.2049ZM65.4856 25.7426C64.3 25.7426 63.3016 26.7238 63.3016 27.8889C63.3016 29.054 64.3 30.0351 65.4856 30.0351C66.6712 30.0351 67.6696 29.054 67.6696 27.8889C67.6696 26.7238 66.7336 25.7426 65.4856 25.7426ZM56.6872 21.2662C56.6872 20.1625 57.5608 19.304 58.684 19.304C59.8072 19.304 60.6808 20.1625 60.6808 21.2662C60.6808 22.37 59.8072 23.2285 58.684 23.2285C57.5608 23.2285 56.6872 22.37 56.6872 21.2662Z" fill="#979797"/>
<path d="M114.095 17.0352C113.846 17.0352 113.658 17.2804 113.658 17.4644V34.4503C113.658 34.6955 113.908 34.8795 114.095 34.8795H116.154C116.404 34.8795 116.591 34.6342 116.591 34.4503V17.4644C116.591 17.2191 116.342 17.0352 116.154 17.0352H114.095Z" fill="#979797"/>
<path d="M115.218 9.8606C114.095 9.8606 113.222 10.7191 113.222 11.8229C113.222 12.9266 114.095 13.7851 115.218 13.7851C116.342 13.7851 117.215 12.9266 117.215 11.8229C117.215 10.7191 116.279 9.8606 115.218 9.8606Z" fill="#979797"/>
<path d="M158.399 17.0352C158.15 17.0352 157.962 17.2804 157.962 17.4644V34.4503C157.962 34.6955 158.212 34.8795 158.399 34.8795H160.458C160.708 34.8795 160.895 34.6342 160.895 34.4503V17.4644C160.895 17.2191 160.646 17.0352 160.458 17.0352H158.399Z" fill="#979797"/>
<path d="M159.398 9.8606C158.274 9.8606 157.401 10.7191 157.401 11.8229C157.401 12.9266 158.274 13.7851 159.398 13.7851C160.521 13.7851 161.394 12.9266 161.394 11.8229C161.394 10.7191 160.521 9.8606 159.398 9.8606Z" fill="#979797"/>
<path fill-rule="evenodd" clip-rule="evenodd" d="M180.467 33.0197C180.454 33.0794 180.422 33.1516 180.346 33.2238C180.346 33.3465 180.216 33.4691 179.956 33.4078L180.055 33.5226C180.042 33.5275 180.031 33.5304 180.021 33.5304H179.826L180.281 34.0823H180.541L180.055 33.5226C180.077 33.5143 180.102 33.5002 180.13 33.4848C180.194 33.4499 180.27 33.4078 180.346 33.4078C180.476 33.4078 180.476 33.2852 180.476 33.1625C180.476 33.1121 180.476 33.0617 180.467 33.0197ZM179.566 33.5304V33.3465V32.7946H180.021C180.151 32.7946 180.281 32.7946 180.346 32.9172C180.422 32.9172 180.454 32.9598 180.467 33.0197C180.476 32.978 180.476 32.9425 180.476 32.9172V32.7946C180.476 32.7946 180.476 32.672 180.346 32.672C180.346 32.672 180.216 32.5493 180.086 32.5493H179.826H179.241V34.0823H179.501V33.5304H179.566Z" fill="#8C98A4"/>
<path fill-rule="evenodd" clip-rule="evenodd" d="M178.43 33.3464C178.43 32.6106 179.116 31.936 179.865 31.936C180.676 31.936 181.3 32.5492 181.3 33.3464C181.3 34.0823 180.614 34.7568 179.865 34.7568C179.116 34.7568 178.43 34.0823 178.43 33.3464ZM178.554 33.3464C178.554 34.0823 179.116 34.6341 179.865 34.6341C180.551 34.6341 181.175 34.0823 181.175 33.3464C181.175 32.6106 180.614 32.0587 179.865 32.0587C179.116 32.0587 178.554 32.6106 178.554 33.3464Z" fill="#8C98A4"/>
<path d="M131.255 19.7946C131.505 19.7946 131.692 19.5493 131.692 19.3654V17.3418C131.692 17.0965 131.442 16.9125 131.255 16.9125H126.825V10.4125C126.825 10.1672 126.575 9.98328 126.388 9.98328H124.329C124.079 9.98328 123.892 10.2286 123.892 10.4125V16.9125H121.708C121.458 16.9125 121.271 17.1578 121.271 17.3418V19.3654C121.271 19.6106 121.521 19.7946 121.708 19.7946H123.892V29.6059C123.892 32.6106 125.951 34.5729 128.946 34.5729H131.13C131.38 34.5729 131.567 34.3276 131.567 34.1437V32.1201C131.567 31.8748 131.318 31.6908 131.13 31.6908H129.258C127.823 31.6908 126.825 30.7097 126.825 29.1767V19.7333H131.255V19.7946Z" fill="#979797"/>
<path d="M175.06 19.7946C175.31 19.7946 175.497 19.5493 175.497 19.3654V17.3418C175.497 17.0965 175.247 16.9125 175.06 16.9125H170.63V10.4125C170.63 10.1672 170.38 9.98328 170.193 9.98328H168.134C167.884 9.98328 167.697 10.2286 167.697 10.4125V16.9125H165.513C165.263 16.9125 165.076 17.1578 165.076 17.3418V19.3654C165.076 19.6106 165.326 19.7946 165.513 19.7946H167.697V29.6059C167.697 32.6106 169.756 34.5729 172.751 34.5729H174.935C175.185 34.5729 175.372 34.3276 175.372 34.1437V32.1201C175.372 31.8748 175.122 31.6908 174.935 31.6908H172.938C171.503 31.6908 170.505 30.7097 170.505 29.1767V19.7333H174.998L175.06 19.7946Z" fill="#979797"/>
<path d="M100.991 19.7946V34.2663C100.991 34.5116 101.241 34.6955 101.428 34.6955H103.487C103.737 34.6955 103.924 34.4502 103.924 34.2663V19.7946H108.791C109.041 19.7946 109.228 19.5493 109.228 19.3653V17.3418C109.228 17.0965 108.978 16.9125 108.791 16.9125H103.924V13.1106C103.924 11.5776 105.047 10.5352 106.358 10.5352H108.791C109.041 10.5352 109.228 10.2899 109.228 10.1059V8.08232C109.228 7.83704 108.978 7.65308 108.791 7.65308H106.482C103.425 7.65308 100.991 10.1672 100.991 13.0493V16.9125H98.8072C98.5576 16.9125 98.3704 17.1578 98.3704 17.3418V19.3653C98.3704 19.6106 98.62 19.7946 98.8072 19.7946H100.991Z" fill="#979797"/>
<path fill-rule="evenodd" clip-rule="evenodd" d="M145.046 16.3606C147.479 16.3606 149.788 17.3417 151.41 19.0587C153.033 20.7757 153.906 23.1672 153.906 25.804C153.906 32.3653 149.351 35.3087 144.983 35.3087C140.553 35.3087 136.06 32.4266 136.06 25.804V7.95964C136.06 7.77568 136.247 7.5304 136.497 7.5304H138.556C138.743 7.5304 138.993 7.71436 138.993 7.95964V18.7521C140.428 17.3417 142.737 16.3606 145.046 16.3606ZM138.93 25.8653C138.93 29.1153 140.553 32.5493 144.983 32.5493C149.414 32.5493 150.974 29.1153 151.036 25.8653C151.036 21.9408 148.602 19.2427 144.983 19.2427C141.364 19.2427 138.93 21.8795 138.93 25.8653Z" fill="#979797"/>
</g>
</svg>
