<svg width="238" height="42" viewBox="0 0 238 42" fill="none" xmlns="http://www.w3.org/2000/svg">
<path d="M87.215 14.7602H72.6658V19.0502H83.0119C82.4946 25.0952 77.4509 27.7602 72.7305 27.7602C66.6521 27.7602 61.3497 22.9502 61.3497 16.2552C61.3497 9.69025 66.3935 4.62025 72.7305 4.62025C77.6449 4.62025 80.4901 7.74025 80.4901 7.74025L83.4646 4.62025C83.4646 4.62025 79.5848 0.330248 72.5365 0.330248C63.5483 0.265248 56.6293 7.87025 56.6293 16.1252C56.6293 24.1852 63.1603 32.0502 72.7951 32.0502C81.266 32.0502 87.4737 26.2652 87.4737 17.6202C87.4737 15.8002 87.215 14.7602 87.215 14.7602Z" fill="white"/>
<path fill-rule="evenodd" clip-rule="evenodd" d="M88.8316 21.7152C88.8316 16.2552 93.0994 11.5752 99.0484 11.5752C103.963 11.5752 109.265 15.0852 109.33 21.8452C109.33 27.8252 104.803 32.0502 99.1777 32.0502C92.97 32.0502 88.8316 27.3052 88.8316 21.7152ZM104.803 21.8452C104.803 18.0752 102.023 15.6702 99.1131 15.6702C95.8152 15.6702 93.2934 18.2702 93.358 21.7802C93.358 25.4202 95.8799 28.0202 99.1131 28.0202C102.088 28.0202 104.803 25.6152 104.803 21.8452Z" fill="white"/>
<path fill-rule="evenodd" clip-rule="evenodd" d="M111.076 21.7152C111.076 16.2552 115.344 11.5752 121.293 11.5752C126.207 11.5752 131.509 15.0852 131.574 21.8452C131.574 27.8252 127.048 32.0502 121.422 32.0502C115.214 32.0502 111.076 27.3052 111.076 21.7152ZM127.048 21.8452C127.048 18.0752 124.267 15.6702 121.357 15.6702C118.059 15.6702 115.538 18.2702 115.602 21.7802C115.602 25.4202 118.124 28.0202 121.357 28.0202C124.332 28.0202 127.048 25.6152 127.048 21.8452Z" fill="white"/>
<path fill-rule="evenodd" clip-rule="evenodd" d="M133.32 21.8453C133.32 16.4503 137.588 11.6403 143.084 11.6403C145.477 11.6403 147.287 12.5503 148.451 13.9803V12.2253H152.719V30.6203C152.719 37.8353 148.58 41.2803 143.149 41.2803C138.17 41.2803 135.389 38.2253 134.031 35.3003L137.976 33.6753C138.558 34.9753 140.11 37.3153 143.213 37.3153C146.447 37.3153 148.58 35.1703 148.58 31.6603V29.6453C147.352 31.0103 145.865 32.1153 142.955 32.1153C138.299 32.1153 133.32 27.9553 133.32 21.8453ZM148.904 21.9103C148.904 18.0103 146.123 15.6703 143.472 15.6703C140.627 15.6703 137.846 17.9453 137.782 21.9753C137.782 25.6803 140.498 28.0853 143.407 28.0853C146.188 28.0853 148.904 25.9403 148.904 21.9103Z" fill="white"/>
<path fill-rule="evenodd" clip-rule="evenodd" d="M162.354 21.7802C162.354 15.6702 166.686 11.5752 171.859 11.5752C175.868 11.5752 178.907 14.3052 180.265 17.4252L180.977 19.1152L167.333 24.8352C168.173 26.3952 169.467 27.9552 172.312 27.9552C174.834 27.9552 176.386 26.5902 177.291 25.1602L180.847 27.5652C179.295 29.6452 176.58 32.0502 172.312 32.0502C167.203 32.0502 162.354 28.2152 162.354 21.7802ZM175.804 17.7502C175.157 16.5152 173.864 15.5402 171.989 15.5402C169.079 15.5402 166.233 18.5952 166.751 21.5852L175.804 17.7502Z" fill="white"/>
<path d="M155.887 31.4653H160.349V1.3053H155.887V31.4653Z" fill="white"/>
</svg>
