<svg width="238" height="42" viewBox="0 0 238 42" fill="none" xmlns="http://www.w3.org/2000/svg">
<g opacity="0.5">
<path fill-rule="evenodd" clip-rule="evenodd" d="M74.0342 35.4191C72.8622 35.6115 71.6902 35.7316 70.4876 35.8549C69.7693 35.9285 69.04 36.0032 68.2934 36.0951L62.303 18.765V36.8326C60.431 37.017 58.7462 37.2628 56.9366 37.57V4.44604H61.9286L68.7302 23.2511V4.44604H74.0342V35.4191ZM84.3926 16.614C85.4467 16.614 86.7788 16.5818 88.0792 16.5504L88.0792 16.5504C89.3191 16.5204 90.5301 16.4911 91.4438 16.4911V21.6533C89.135 21.6533 86.3894 21.6533 84.3926 21.7762V29.458C85.365 29.3994 86.3437 29.3346 87.3268 29.2694L87.3269 29.2694L87.327 29.2694C89.4349 29.1297 91.5625 28.9888 93.6902 28.905V33.8828L79.151 34.989V4.44604H93.6902V9.60823H84.3926V16.614ZM107.73 9.66968H113.159C113.159 9.66968 113.159 4.44604 113.221 4.44604H97.0598V9.66968H102.489V33.514C104.173 33.4526 105.983 33.4526 107.73 33.4526V9.66968ZM121.708 16.2453H128.884V21.4075H121.708V33.1453H116.529V4.44604H131.193V9.60823H121.708V16.2453ZM145.183 28.8447C143.378 28.7403 141.56 28.635 139.741 28.5977V4.44604H134.5V33.4526C139.305 33.5755 143.985 33.8213 148.665 34.1286V29.0279C147.513 28.9796 146.351 28.9123 145.183 28.8448L145.183 28.8447L145.183 28.8447ZM153.095 34.4973C153.679 34.5399 154.27 34.5751 154.866 34.6106C155.991 34.6776 157.132 34.7456 158.274 34.866V4.44604H153.095V34.4973ZM174.561 20.1784L181.237 4.44604H175.434L171.753 13.1111L168.321 4.44604H162.705L168.82 19.994L162.081 35.1119C162.829 35.2102 163.578 35.2889 164.327 35.3675C165.45 35.4855 166.573 35.6035 167.697 35.7879L171.565 26.9999L175.309 36.5868C176.009 36.6944 176.7 36.8095 177.39 36.9243C178.669 37.1372 179.94 37.3489 181.237 37.5086L174.561 20.1784Z" fill="#979797"/>
</g>
</svg>
