<svg width="238" height="42" viewBox="0 0 238 42" fill="none" xmlns="http://www.w3.org/2000/svg">
<g opacity="0.5">
<path d="M73.1119 4.36019C72.5428 2.49537 70.5507 1.49123 68.701 2.06502C66.8512 2.63882 65.8552 4.64709 66.4244 6.51192L75.5308 34.7712C76.1711 36.4926 78.0209 37.4967 79.7995 36.9947C81.6493 36.4209 82.7876 34.4843 82.2184 32.6195C82.2184 32.5478 73.1119 4.36019 73.1119 4.36019Z" fill="#979797"/>
<path d="M59.0254 9.0223C58.4562 7.15748 56.4642 6.15334 54.6144 6.72713C52.7647 7.30092 51.7687 9.3092 52.3378 11.174L61.4443 39.4333C62.0846 41.1547 63.9343 42.1589 65.7129 41.6568C67.5627 41.083 68.701 39.1464 68.1318 37.2816C68.1318 37.2099 59.0254 9.0223 59.0254 9.0223Z" fill="#979797"/>
<path d="M84.6373 27.814C86.4871 27.2403 87.4831 25.232 86.9139 23.3672C86.3448 21.5023 84.3527 20.4982 82.503 21.072L54.401 30.1809C52.6935 30.8265 51.6975 32.6913 52.1955 34.4844C52.7647 36.3492 54.6856 37.4968 56.5353 36.923C56.6776 36.923 84.6373 27.814 84.6373 27.814Z" fill="#979797"/>
<path opacity="0.2" d="M60.2348 35.7753C62.0846 35.2015 64.4323 34.4126 66.9224 33.5519C66.3532 31.6871 65.5706 29.3202 64.7169 26.8098L58.0294 29.0333L60.2348 35.7753Z" fill="white"/>
<path opacity="0.2" d="M74.3925 31.1132C76.9537 30.2525 79.3015 29.5353 81.0801 28.8898C80.5109 27.0249 79.7284 24.658 78.8746 22.1477L72.1871 24.3712L74.3925 31.1132Z" fill="white"/>
<path d="M80.0129 13.5409C81.8627 12.9671 82.8587 10.9588 82.2896 9.09396C81.7204 7.22913 79.7284 6.22499 77.8786 6.79879L49.8478 15.9795C48.1403 16.625 47.1443 18.4898 47.6423 20.2829C48.2114 22.2195 50.1323 23.3671 51.9821 22.7215C52.0532 22.7215 80.0129 13.5409 80.0129 13.5409Z" fill="#979797"/>
<path opacity="0.2" d="M55.6816 21.5023C57.5313 20.9285 59.8791 20.1395 62.3692 19.2788C61.5154 16.6967 60.804 14.3298 60.1637 12.5367L53.4761 14.7602L55.6816 21.5023Z" fill="white"/>
<path opacity="0.2" d="M69.7682 16.9119C72.3293 16.0512 74.6771 15.334 76.4557 14.6885C75.602 12.1064 74.8905 9.73951 74.2502 7.94641L67.5627 10.1699L69.7682 16.9119Z" fill="white"/>
<path d="M113.024 11.8195C114.233 12.3933 114.376 12.752 113.38 14.6168C112.384 16.5533 112.17 16.6251 110.89 16.123C109.324 15.4775 107.403 14.9754 106.123 14.9754C104.06 14.9754 102.708 15.6926 102.708 16.8402C102.708 20.5699 114.589 18.5616 114.589 26.5947C114.589 30.6113 111.174 33.2651 106.052 33.2651C103.348 33.2651 100.004 32.3326 97.7279 31.1851C96.5895 30.6113 96.5184 30.2526 97.5144 28.3161C98.3682 26.6664 98.6527 26.4513 99.8622 26.9533C101.854 27.814 104.273 28.4595 105.981 28.4595C107.901 28.4595 109.111 27.6706 109.111 26.523C109.111 22.8651 97.0164 24.5864 97.0164 16.8402C97.0164 12.752 100.431 9.95471 105.483 9.95471C107.901 10.1699 110.961 10.8871 113.024 11.8195Z" fill="#979797"/>
<path d="M122.628 2.35192V32.1892C122.628 32.6195 122.13 33.1216 121.49 33.1216H118.36C117.648 33.1216 117.221 32.6195 117.221 32.1892V2.35192C117.221 0.845714 117.648 0.77399 119.925 0.77399C122.486 0.702266 122.628 0.917439 122.628 2.35192Z" fill="#979797"/>
<path fill-rule="evenodd" clip-rule="evenodd" d="M144.683 31.9022V19.0636C144.683 13.4691 140.912 10.1698 134.936 10.1698C132.233 10.1698 129.245 11.0305 127.11 12.465C125.972 13.1822 125.972 13.5408 127.11 15.3339C128.32 17.127 128.533 17.1988 129.672 16.5532C131.095 15.6926 132.873 15.1188 134.367 15.1188C137.498 15.1188 139.347 16.5532 139.347 18.9201V20.4264C137.853 19.7808 136.003 19.4222 134.011 19.4222C128.676 19.4222 125.19 22.2912 125.19 26.5946C125.19 30.6112 128.32 33.3367 132.944 33.3367C135.363 33.3367 137.782 32.3326 139.418 30.4677L139.347 31.8305C139.276 32.5477 139.774 33.0498 140.486 33.0498H143.545C144.185 33.0498 144.683 32.6195 144.683 31.9022ZM133.585 29.0332C131.664 29.0332 130.383 28.0291 130.383 26.5229C130.383 24.6581 132.304 23.2236 135.15 23.2236C136.501 23.2236 138.067 23.4388 139.276 23.9408V25.9491C138.067 27.8857 135.932 29.0332 133.585 29.0332Z" fill="#979797"/>
<path d="M165.813 11.8913C166.951 12.5368 166.951 12.8954 165.742 14.832C164.603 16.6251 164.39 16.7685 163.109 16.123C162.185 15.6209 160.619 15.1906 159.41 15.1906C155.497 15.1906 152.936 17.7727 152.936 21.7175C152.936 25.8058 155.497 28.5313 159.41 28.5313C160.762 28.5313 162.469 28.0292 163.536 27.3837C164.675 26.7382 164.888 26.7382 166.098 28.5313C167.165 30.1809 167.165 30.5396 166.169 31.2568C164.461 32.4761 161.687 33.4085 159.268 33.4085C152.082 33.4085 147.244 28.7465 147.244 21.7892C147.244 14.832 152.082 10.2416 159.339 10.2416C161.615 10.1699 164.177 10.8872 165.813 11.8913Z" fill="#979797"/>
<path d="M189.362 30.2527C190.287 31.4003 189.931 31.8306 187.654 32.6196C185.378 33.4803 185.022 33.4085 184.239 32.3327L177.765 23.654L174.848 26.4513V32.1175C174.848 32.5478 174.35 33.0499 173.71 33.0499H170.58C169.868 33.0499 169.441 32.5478 169.441 32.1175V2.35198C169.441 0.845772 169.868 0.774048 172.145 0.774048C174.777 0.774048 174.848 0.98922 174.848 2.35198V19.2789L183.67 10.7437C184.666 9.81129 185.164 9.88301 186.943 11.0306C188.864 12.2499 189.006 12.6085 188.081 13.5409L181.536 19.9961L189.362 30.2527Z" fill="#979797"/>
</g>
</svg>
